<svg xmlns="http://www.w3.org/2000/svg" viewBox="0 0 692.63 146.53"><defs><style>.cls-1{fill:#fff;}.cls-2{fill:#2346f8;}.cls-3{fill:#33c5ff;}</style></defs><title>Asset 2</title><g id="Layer_2" data-name="Layer 2"><g id="Layer_1-2" data-name="Layer 1"><path class="cls-1" d="M261.49,63.65V42.48H243.73V16.13H222.21V28.5c0,7.88-4.29,14-13.61,14h-4.49V63.65h16V104.7c0,17,10.75,27.25,28,27.25,7,0,11.28-1.26,13.45-2.15V110.08a34.68,34.68,0,0,1-7.36.72c-6.82,0-10.4-2.51-10.4-10.23V63.65Z"/><path class="cls-1" d="M361.15,84.08a66.11,66.11,0,0,0-.61-9.08,50.27,50.27,0,0,0-1.9-8.58c-5.52-17.72-20-28.05-41-28.05-22.6,0-43.39,18.27-43.39,46.43,0,29.75,21.33,47.15,45.54,47.15,21.37,0,35.24-12.33,39.94-27.27l.21-.69H336.82a9,9,0,0,1-.61.77c-3.45,4.16-8.69,6.75-16.28,6.75-11.85,0-21.7-8.42-22.24-20.07h63.12C360.81,91.07,361.15,87.49,361.15,84.08Zm-62.92-9c.53-8.06,7.34-17.38,19.72-17.38,8.91,0,14.45,3.68,17.32,8.69a18.51,18.51,0,0,1,2.32,7.49c0,.41.07.8.08,1.2Z"/><path class="cls-1" d="M460,69.11c-2.27-15.86-12.35-27.7-31.4-27.7-9.5,0-20.09,4.13-25.46,13.26V43.74H380V132h23.85V81.21a24,24,0,0,1,.25-3.52,18.8,18.8,0,0,1,3.4-8.58,15.42,15.42,0,0,1,12.85-6.19c6.38,0,10.7,2.39,13.28,6.19a18.43,18.43,0,0,1,2.89,8.58,25.79,25.79,0,0,1,.14,2.81V132h23.84V76.37A50.56,50.56,0,0,0,460,69.11Z"/><path class="cls-1" d="M547.28,96.18c-.06-.25-.14-.52-.21-.77C544.24,86,535.84,78.7,522,75.84L518.06,75l-8.65-1.85c-4.38-.81-7.45-3.1-8-6.73a6.37,6.37,0,0,1-.1-1.17c0-5,5-8.78,11.3-8.78,8.85,0,12.82,5.15,14.12,10h20.56l-.26-2.59c-1.08-9.52-9.5-25.46-34.6-25.46-18.68,0-32.51,12.64-33,28.05a7.22,7.22,0,0,0,0,.81,26.45,26.45,0,0,0,.91,7c2.48,9.13,10.16,16.33,23.84,19.35l7.91,1.83,3.32.77.42.1c6.29,1.31,9.07,4.17,9.45,7.71a5,5,0,0,1,0,.77v.11c0,4.66-3.76,8.79-11.65,8.79-8.07,0-13-3.89-15.06-8.9h-21.5c1.09,10,10.25,27.19,36.75,27.19,22.11,0,33.26-13.46,34.15-27.19,0-.25,0-.52.05-.77s0-.72,0-1.09A26.12,26.12,0,0,0,547.28,96.18Z"/><path class="cls-1" d="M647.28,84.08a66.11,66.11,0,0,0-.61-9.08,51.24,51.24,0,0,0-1.9-8.58c-5.53-17.72-20-28.05-41-28.05a43.06,43.06,0,0,0-40.08,28.05A47.16,47.16,0,0,0,561.23,75a52.53,52.53,0,0,0-.89,9.8,56.41,56.41,0,0,0,1,10.61c.06.27.1.52.17.77a44.16,44.16,0,0,0,2.29,7.81c.1.27.21.52.32.77,7.13,17.42,23.65,27.19,41.78,27.19,21.38,0,35.24-12.33,39.94-27.27L646,104H623a9.08,9.08,0,0,1-.62.77c-3.44,4.16-8.69,6.75-16.28,6.75a22.81,22.81,0,0,1-16.47-6.75c-.24-.25-.48-.5-.71-.77a19.82,19.82,0,0,1-4.27-7.81,4.85,4.85,0,0,1-.21-.77,19.2,19.2,0,0,1-.57-4h63.11C646.93,91.07,647.28,87.49,647.28,84.08Zm-62.92-9a.41.41,0,0,1,0-.11,18.29,18.29,0,0,1,3-8.58,19.35,19.35,0,0,1,16.74-8.69c8.92,0,14.46,3.68,17.33,8.69a18.83,18.83,0,0,1,2.32,7.49c0,.41.07.8.08,1.2Z"/><path class="cls-1" d="M677.93,0a14.7,14.7,0,0,0,0,29.4,14.7,14.7,0,1,0,0-29.4ZM666.1,43.74V132h23.84V43.74Z"/><path class="cls-2" d="M124.25.51H21.78A21.78,21.78,0,0,0,0,22.29V124.75a21.78,21.78,0,0,0,21.78,21.78H124.25A21.77,21.77,0,0,0,146,124.75V22.29A21.78,21.78,0,0,0,124.25.51ZM73,112.14A48.16,48.16,0,0,1,24.86,64h30.4a19.94,19.94,0,0,0,35.49,0h30.4A48.15,48.15,0,0,1,73,112.14Z"/><path class="cls-3" d="M93,54.87A20,20,0,0,1,55.26,64,20,20,0,1,1,93,54.87Z"/></g></g></svg>