<svg xmlns="http://www.w3.org/2000/svg" viewBox="0 0 166 24"><g id="Page-1" fill="none" fill-rule="evenodd"><path id="Combined-Shape" fill="#252D37" d="M40.76 18h-6.8V7.328h2.288V16h4.512v2zm8.064 0h-2.048v-.816c-.528.64-1.44 1.008-2.448 1.008-1.232 0-2.672-.832-2.672-2.56 0-1.824 1.44-2.496 2.672-2.496 1.04 0 1.936.336 2.448.944v-.976c0-.784-.672-1.296-1.696-1.296-.816 0-1.584.32-2.224.912l-.8-1.424c.944-.848 2.16-1.216 3.376-1.216 1.776 0 3.392.704 3.392 2.928V18zm-3.68-1.184c.656 0 1.296-.224 1.632-.672v-.96c-.336-.448-.976-.688-1.632-.688-.8 0-1.456.432-1.456 1.168s.656 1.152 1.456 1.152zM52.856 18h-2.032v-7.728h2.032v1.04c.56-.672 1.504-1.232 2.464-1.232v1.984c-.144-.032-.32-.048-.56-.048-.672 0-1.568.384-1.904.88V18zm10.416 0h-2.048v-.816c-.528.64-1.44 1.008-2.448 1.008-1.232 0-2.672-.832-2.672-2.56 0-1.824 1.44-2.496 2.672-2.496 1.04 0 1.936.336 2.448.944v-.976c0-.784-.672-1.296-1.696-1.296-.816 0-1.584.32-2.224.912l-.8-1.424c.944-.848 2.16-1.216 3.376-1.216 1.776 0 3.392.704 3.392 2.928V18zm-3.68-1.184c.656 0 1.296-.224 1.632-.672v-.96c-.336-.448-.976-.688-1.632-.688-.8 0-1.456.432-1.456 1.168s.656 1.152 1.456 1.152zM69.464 18h-2.192l-3.104-7.728h2.176l2.016 5.376 2.032-5.376h2.176L69.464 18zm7.648.192c-2.352 0-4.128-1.584-4.128-4.064 0-2.24 1.664-4.048 4-4.048 2.32 0 3.872 1.728 3.872 4.24v.48h-5.744c.144.944.912 1.728 2.224 1.728.656 0 1.552-.272 2.048-.752l.912 1.344c-.768.704-1.984 1.072-3.184 1.072zm1.792-4.8c-.064-.736-.576-1.648-1.92-1.648-1.264 0-1.808.88-1.888 1.648h3.808zM84.36 18h-2.032V7.328h2.032V18zm15.2 0h-1.28l-6.224-8.512V18h-1.328V7.328h1.36l6.144 8.336V7.328h1.328V18zm5.824.192c-2.352 0-3.824-1.824-3.824-4.064s1.472-4.048 3.824-4.048 3.824 1.808 3.824 4.048-1.472 4.064-3.824 4.064zm0-1.072c1.648 0 2.56-1.408 2.56-2.992 0-1.568-.912-2.976-2.56-2.976-1.648 0-2.56 1.408-2.56 2.976 0 1.584.912 2.992 2.56 2.992zm9.152.88h-1.312l-3.216-7.728h1.312l2.56 6.336 2.576-6.336h1.296L114.536 18zm10.496 0h-1.2v-.88c-.624.704-1.52 1.072-2.56 1.072-1.296 0-2.688-.88-2.688-2.56 0-1.744 1.376-2.544 2.688-2.544 1.056 0 1.936.336 2.56 1.04v-1.392c0-1.024-.832-1.616-1.952-1.616-.928 0-1.68.32-2.368 1.072l-.56-.832c.832-.864 1.824-1.28 3.088-1.28 1.648 0 2.992.736 2.992 2.608V18zm-3.312-.672c.832 0 1.648-.32 2.112-.96v-1.472c-.464-.624-1.28-.944-2.112-.944-1.136 0-1.92.704-1.92 1.68 0 .992.784 1.696 1.92 1.696zm13.568.672h-3.648V7.328h3.648c3.328 0 5.472 2.32 5.472 5.344 0 3.04-2.144 5.328-5.472 5.328zm0-1.184c2.592 0 4.096-1.856 4.096-4.144 0-2.304-1.456-4.16-4.096-4.16h-2.32v8.304h2.32zm10.88 1.376c-2.352 0-3.824-1.824-3.824-4.064s1.472-4.048 3.824-4.048 3.824 1.808 3.824 4.048-1.472 4.064-3.824 4.064zm0-1.072c1.648 0 2.56-1.408 2.56-2.992 0-1.568-.912-2.976-2.56-2.976-1.648 0-2.56 1.408-2.56 2.976 0 1.584.912 2.992 2.56 2.992zm9.184 1.072c-2.304 0-3.856-1.776-3.856-4.064 0-2.288 1.552-4.048 3.856-4.048 1.408 0 2.24.576 2.832 1.344l-.8.72c-.512-.704-1.168-.992-1.968-.992-1.632 0-2.672 1.264-2.672 2.976s1.04 2.992 2.672 2.992c.8 0 1.456-.32 1.968-1.008l.8.736c-.592.768-1.424 1.344-2.832 1.344zm6.992 0c-1.28 0-2.336-.4-3.12-1.216l.608-.864c.512.592 1.488 1.104 2.544 1.104 1.184 0 1.84-.56 1.84-1.328 0-1.872-4.784-.72-4.784-3.584 0-1.216 1.024-2.224 2.864-2.224 1.328 0 2.256.496 2.864 1.12l-.56.832c-.464-.56-1.296-.976-2.304-.976-1.056 0-1.712.528-1.712 1.216 0 1.68 4.784.576 4.784 3.584 0 1.296-1.04 2.336-3.024 2.336zM20.1192389 20.45543C17.9187523 22.6445386 14.8696059 24 11.5 24c-3.75092945 0-7.1047655-1.6796033-9.33292677-4.3190375 4.77220429 3.9333347 11.88059047 3.6871819 16.36039467-.7384596 3.0186827-2.9821855 3.0186827-7.8172635 0-10.79944898-3.0186826-2.9821855-7.9129341-2.9821855-10.93161675 0-1.29372112 1.2780795-1.29372112 3.35025578 0 4.62833528s3.39125745 1.2780795 4.68497865 0c.4312403-.4260265 1.1304191-.4260265 1.5616595 0 .4312404.4260265.4312404 1.1167519 0 1.5427784-2.1562019 2.1301325-5.65209582 2.1301325-7.80829769 0-2.15620187-2.1301325-2.15620187-5.58375961 0-7.71389211 3.88116337-3.8342385 10.17377249-3.8342385 14.05493589 0 3.8711037 3.82430051 3.8811373 10.01855801.0301007 13.85514391l.0000107.0000106zm.7136895-16.13639113C16.0607225.38570282 8.95233625.63185555 4.47253207 5.05749706c-3.01868262 2.9821855-3.01868262 7.81726354 0 10.79944904 3.01868262 2.9821855 7.91293413 2.9821855 10.93161683 0 1.2937211-1.2780795 1.2937211-3.3502558 0-4.6283353-1.2937212-1.27807952-3.3912575-1.27807952-4.6849787 0-.4312403.4260265-1.13041914.4260265-1.56165951 0-.43124038-.4260265-.43124038-1.1167519 0-1.54277845 2.15620191-2.1301325 5.65209581-2.1301325 7.80829771 0 2.1562019 2.13013255 2.1562019 5.58375965 0 7.71389215-3.8811634 3.8342385-10.1737725 3.8342385-14.05493587 0C-.96526101 13.570455-.97028432 7.36506586 2.89580259 3.52963767 5.09513308 1.34929658 8.13806556 0 11.5 0c3.7509295 0 7.1047655 1.67960335 9.3329268 4.31903751z"/></g></svg>
